# xmcd
#
# Track frame offsets: 
#        150
#        15849
#        31383
#        47558
#        65363
#        88871
#        109474
#        128817
#        148456
#        176178
#        198749
#        221237
#
# Disc length: 3237 seconds
#
# Revision: 3
# Processed by: cddbd v1.5.2PL0 Copyright (c) Steve Scherf et al.
# Submitted via: ExactAudioCopy v0.99pb3
#
DISCID=ba0ca30c
DTITLE=Robben Ford - Keep on running
DYEAR=2003
DGENRE=Blues
TTITLE0=Keep on Running
TTITLE1=Over My Head
TTITLE2=Homework
TTITLE3=Badge
TTITLE4=Peace, Love and Understanding
TTITLE5=Cannonball Shuffle (for Freddie King)
TTITLE6=Lifetime Thing
TTITLE7=Bonnie
TTITLE8=Me and My Woman
TTITLE9=for The Love of Money
TTITLE10=Hand in Hand With The Blues
TTITLE11=My Time After Awhile (Bonus Track)
EXTD=
EXTT0=
EXTT1=
EXTT2=
EXTT3=
EXTT4=
EXTT5=
EXTT6=
EXTT7=
EXTT8=
EXTT9=
EXTT10=
EXTT11=
PLAYORDER=
